#N canvas 416 23 1154 865 12;
#X obj 38 18 cnv 15 230 140 empty empty empty 20 12 0 14 -262130 -66577
0;
#X obj 499 268 cnv 15 270 320 empty empty empty 20 12 0 14 -204800
-66577 0;
#X obj 148 366 cnv 15 140 60 empty empty empty 20 12 0 14 -232576 -66577
0;
#X obj 339 13 cnv 15 400 140 empty empty empty 20 12 0 14 -261682 -66577
0;
#X obj 519 532 makenote 100 300;
#X obj 519 554 noteout 1;
#X obj 356 51 tgl 15 0 empty empty empty 17 7 0 10 -262144 -1 -1 0
1;
#X floatatom 501 51 5 0 0 0 - - -;
#X obj 356 73 clockDiv_01, f 42;
#X obj 477 129 bng 15 250 50 0 empty empty empty 17 7 0 10 -262144
-1 -1;
#X floatatom 647 52 5 0 0 0 - - -;
#X obj 519 486 spigot;
#X obj 569 486 tgl 15 0 empty empty empty 17 7 0 10 -262144 -1 -1 1
1;
#X floatatom 519 511 5 0 0 0 - - -;
#X obj 519 395 escalaDorian_01, f 21;
#X obj 543 292 tgl 15 0 empty empty empty 17 7 0 10 -262144 -1 -1 1
1;
#X floatatom 695 358 5 1 10 0 - - -;
#X msg 695 337 1;
#X floatatom 578 358 5 1 10 0 - - -;
#X msg 578 338 2;
#X obj 647 31 random 1500;
#X obj 550 130 bng 15 250 50 0 empty empty empty 17 7 0 10 -262144
-1 -1;
#X obj 532 30 loadbang;
#X obj 695 284 loadbang;
#X text 562 318 numOitavas;
#X text 686 318 oitavaBase;
#X obj 51 30 MidiToClock_01;
#X obj 185 136 bng 15 250 50 0 empty empty empty 17 7 0 10 -262144
-1 -1;
#X obj 166 136 bng 15 250 50 0 empty empty empty 17 7 0 10 -262144
-1 -1;
#X msg 501 30 200;
#X text 541 51 bpm;
#X text 339 35 internal clock;
#X text 585 486 PLAY OR NOT TO PLAY THE NOTES;
#X text 522 267 auto notes (turn on);
#X text 70 16 (just tried with ableton);
#X text 676 387 inlets and outlets description inside the objecto hope
its clear \, otherwise ring me in;
#X text 38 159 configure midi IN and press play;
#X text 38 177 in ableton it should work properly;
#X text 175 379 elevenBall;
#X text 143 401 effective half life;
#X connect 4 0 5 0;
#X connect 4 1 5 1;
#X connect 6 0 8 0;
#X connect 7 0 8 1;
#X connect 8 5 9 0;
#X connect 8 6 14 0;
#X connect 8 8 21 0;
#X connect 9 0 20 0;
#X connect 10 0 8 2;
#X connect 11 0 13 0;
#X connect 12 0 11 1;
#X connect 13 0 4 0;
#X connect 14 0 11 0;
#X connect 14 2 11 0;
#X connect 15 0 14 1;
#X connect 16 0 14 3;
#X connect 17 0 16 0;
#X connect 18 0 14 2;
#X connect 19 0 18 0;
#X connect 20 0 10 0;
#X connect 22 0 29 0;
#X connect 23 0 17 0;
#X connect 23 0 19 0;
#X connect 23 0 15 0;
#X connect 23 0 12 0;
#X connect 26 6 28 0;
#X connect 26 7 27 0;
#X connect 27 0 14 0;
#X connect 29 0 7 0;
