#N canvas -1448 129 1192 672 10;
#X obj 38 18 cnv 15 230 140 empty empty empty 20 12 0 14 -262130 -66577
0;
#X obj 499 268 cnv 15 270 320 empty empty empty 20 12 0 14 -204800
-66577 0;
#X obj 147 366 cnv 15 100 60 empty empty empty 20 12 0 14 -232576 -66577
0;
#X obj 357 23 cnv 15 400 140 empty empty empty 20 12 0 14 -261682 -66577
0;
#X obj 519 532 makenote 100 300;
#X obj 519 554 noteout 1;
#X obj 374 61 tgl 15 0 empty empty empty 17 7 0 10 -262144 -1 -1 1
1;
#X floatatom 519 61 5 0 0 0 - - -;
#X obj 374 83 clockDiv_01, f 42;
#X obj 495 139 bng 15 250 50 0 empty empty empty 17 7 0 10 -262144
-1 -1;
#X floatatom 665 62 5 0 0 0 - - -;
#X obj 519 486 spigot;
#X obj 563 485 tgl 15 0 empty empty empty 17 7 0 10 -262144 -1 -1 1
1;
#X floatatom 519 511 5 0 0 0 - - -;
#X obj 519 395 escalaDorian_01, f 21;
#X obj 543 292 tgl 15 0 empty empty empty 17 7 0 10 -262144 -1 -1 1
1;
#X floatatom 695 358 5 1 10 0 - - -;
#X msg 695 337 1;
#X floatatom 578 358 5 1 10 0 - - -;
#X msg 578 338 2;
#X obj 665 41 random 1500;
#X obj 568 140 bng 15 250 50 0 empty empty empty 17 7 0 10 -262144
-1 -1;
#X text 527 276 notas auto;
#X obj 374 38 loadbang;
#X obj 695 284 loadbang;
#X obj 575 461 loadbang;
#X text 562 318 numOitavas;
#X text 686 318 oitavaBase;
#X text 161 387 elevenBall;
#X obj 51 30 MidiToClock_01;
#X obj 185 136 bng 15 250 50 0 empty empty empty 17 7 0 10 -262144
-1 -1;
#X obj 166 136 bng 15 250 50 0 empty empty empty 17 7 0 10 -262144
-1 -1;
#X msg 519 40 200;
#X text 553 61 bpm;
#X text 65 16 (just tried with ableton);
#X connect 4 0 5 0;
#X connect 4 1 5 1;
#X connect 6 0 8 0;
#X connect 7 0 8 1;
#X connect 8 5 9 0;
#X connect 8 6 14 0;
#X connect 8 8 21 0;
#X connect 9 0 20 0;
#X connect 10 0 8 2;
#X connect 11 0 13 0;
#X connect 12 0 11 1;
#X connect 13 0 4 0;
#X connect 14 0 11 0;
#X connect 14 1 11 0;
#X connect 14 2 11 0;
#X connect 14 3 11 0;
#X connect 14 4 11 0;
#X connect 14 5 11 0;
#X connect 15 0 14 1;
#X connect 16 0 14 3;
#X connect 17 0 16 0;
#X connect 18 0 14 2;
#X connect 19 0 18 0;
#X connect 20 0 10 0;
#X connect 23 0 6 0;
#X connect 23 0 32 0;
#X connect 24 0 17 0;
#X connect 24 0 19 0;
#X connect 24 0 15 0;
#X connect 25 0 12 0;
#X connect 29 6 31 0;
#X connect 29 7 30 0;
#X connect 30 0 14 0;
#X connect 32 0 7 0;
